<?xml version="1.0" standalone="no"?>
<!DOCTYPE svg PUBLIC "-//W3C//DTD SVG 20010904//EN"
 "http://www.w3.org/TR/2001/REC-SVG-20010904/DTD/svg10.dtd">
<svg version="1.0" xmlns="http://www.w3.org/2000/svg"
 width="400.000000pt" height="400.000000pt" viewBox="0 0 400.000000 400.000000"
 preserveAspectRatio="xMidYMid meet">
<metadata>
Created by potrace 1.11, written by Peter Selinger 2001-2013
</metadata>
<g transform="translate(0.000000,400.000000) scale(0.100000,-0.100000)"
fill="#000000" stroke="none">
<path d="M868 2962 l-168 -2 0 -180 0 -180 1290 0 1290 0 0 180 0 180 -277 0
c-153 0 -658 1 -1123 3 -465 1 -920 1 -1012 -1z"/>
<path d="M700 1880 l0 -180 1290 0 1290 0 0 180 0 180 -1290 0 -1290 0 0 -180z"/>
<path d="M700 980 l0 -180 138 0 c75 0 220 0 322 1 102 0 190 0 195 0 54 0
1657 -1 1773 -1 l152 0 0 180 0 180 -1290 0 -1290 0 0 -180z"/>
</g>
</svg>
